<svg width="340" height="66" viewBox="0 0 340 66" fill="none" xmlns="http://www.w3.org/2000/svg">
<g clip-path="url(#clip0_402_2)">
<path d="M335.457 0C337.268 0.548357 338.634 1.63089 339.471 3.34687C339.802 4.02758 340 4.73667 340 5.51193C339.991 23.7401 340 41.9682 339.981 60.1963C339.981 62.5647 338.667 64.1908 336.658 65.3064C335.968 65.6893 335.212 65.7839 334.427 65.7839C323.389 65.7744 312.351 65.7792 301.313 65.7792C301.109 65.7792 300.901 65.7792 300.589 65.7792C301.062 65.0843 301.483 64.4555 301.913 63.8363C304.787 59.7425 307.661 55.6487 310.54 51.555C312.653 48.5532 314.776 45.5609 316.879 42.5591C320.335 37.6239 323.781 32.6792 327.237 27.7393C328.967 25.2669 330.707 22.8041 332.441 20.3412C332.517 20.2372 332.664 20.1568 332.597 20.0103C332.531 19.859 332.366 19.9252 332.248 19.9252C329.165 19.9252 326.088 19.9252 323.006 19.9157C322.68 19.9157 322.543 20.0859 322.387 20.3081C320.349 23.239 318.307 26.1698 316.265 29.1007C316.047 29.408 315.882 29.3513 315.683 29.0487C314.521 27.2618 313.339 25.4797 312.166 23.6975C311.415 22.5583 310.668 21.419 309.921 20.275C309.779 20.0623 309.642 19.9157 309.339 19.9157C306.22 19.9299 303.104 19.9299 299.984 19.9299C299.947 19.9299 299.913 19.9441 299.814 19.9677C300.467 20.9463 301.105 21.9012 301.748 22.8608C303.61 25.6451 305.468 28.4342 307.33 31.2185C308.432 32.8683 309.529 34.5228 310.654 36.1584C310.881 36.4893 310.899 36.721 310.663 37.0613C308.645 39.9213 306.645 42.7907 304.641 45.6601C301.894 49.5885 299.152 53.5215 296.406 57.4451C294.539 60.1112 292.652 62.7679 290.795 65.4388C290.62 65.6893 290.44 65.8028 290.152 65.7792C290.019 65.765 289.887 65.7792 289.755 65.7792C264.199 65.7792 238.649 65.765 213.093 65.8075C210.805 65.8075 208.678 64.1435 207.889 62.3236C207.496 61.4207 207.312 60.48 207.312 59.4872C207.322 41.8642 207.34 24.2411 207.298 6.6181C207.288 3.35632 209.066 0.850898 211.959 0.00472721H335.457V0ZM216.738 31.0531V35.8086C216.738 41.6562 216.738 47.5085 216.738 53.356C216.738 54.1029 216.738 54.1029 217.485 54.1029C220.227 54.1029 222.964 54.084 225.706 54.1171C226.249 54.1219 226.353 53.9469 226.353 53.4506C226.339 47.8488 226.344 42.2424 226.344 36.6406C226.344 36.149 226.588 35.9016 227.077 35.8985C232.858 35.8985 238.644 35.889 244.425 35.9126C244.988 35.9126 245.106 35.7519 245.097 35.2177C245.064 33.1425 245.068 31.0672 245.097 28.992C245.101 28.4909 244.993 28.3207 244.449 28.3255C238.63 28.3491 232.806 28.3302 226.987 28.3491C226.457 28.3491 226.325 28.1931 226.33 27.6826C226.349 24.0426 226.339 20.3979 226.339 16.758C226.339 16.2222 226.612 15.9543 227.157 15.9543C233.524 15.9543 239.897 15.9496 246.264 15.9638C246.756 15.9638 246.912 15.8456 246.902 15.3351C246.874 13.1653 246.888 10.9955 246.888 8.82571C246.888 8.31832 246.63 8.06462 246.113 8.06462C236.569 8.06462 227.025 8.06462 217.48 8.06462C216.982 8.06462 216.733 8.31201 216.733 8.8068C216.733 16.2238 216.733 23.6361 216.733 31.0531H216.738ZM286.923 39.1839C290.686 39.1839 294.444 39.1791 298.207 39.1933C298.59 39.1933 298.746 39.113 298.722 38.7017C298.689 38.1013 298.699 37.4962 298.717 36.8912C298.779 34.5843 298.519 32.3247 297.843 30.1076C296.822 26.7844 295.011 24.0426 292.142 22.0146C290.123 20.587 287.873 19.7408 285.453 19.4099C283.226 19.1074 280.99 19.1263 278.754 19.547C276.362 19.9914 274.193 20.9037 272.278 22.3739C268.709 25.1204 266.913 28.8927 266.227 33.2323C265.967 34.8632 265.948 36.5177 266.005 38.1817C266.095 40.8242 266.591 43.3485 267.669 45.7594C268.685 48.0379 270.165 49.9714 272.151 51.4983C274.996 53.687 278.296 54.5615 281.813 54.7506C283.742 54.8546 285.651 54.6702 287.538 54.2589C289.202 53.8949 290.766 53.2757 292.208 52.387C295.347 50.4535 297.389 47.6928 298.33 44.1238C298.41 43.8165 298.42 43.5896 297.961 43.5944C295.427 43.6133 292.898 43.6085 290.364 43.5944C290.038 43.5944 289.887 43.7362 289.774 44.0009C289.008 45.7783 287.575 46.7947 285.826 47.4376C284.517 47.9197 283.146 47.8772 281.799 47.7685C280.078 47.6314 278.565 46.9223 277.388 45.6601C275.838 44.0056 275.341 41.9256 275.143 39.7369C275.1 39.2784 275.266 39.1744 275.71 39.1744C279.454 39.1933 283.193 39.1839 286.937 39.1839H286.923ZM251.62 31.0436C251.62 38.5126 251.625 45.9816 251.611 53.4553C251.611 53.9659 251.738 54.1171 252.268 54.1124C254.896 54.084 257.52 54.084 260.148 54.1124C260.678 54.1171 260.852 53.9942 260.852 53.4317C260.838 38.5315 260.838 23.6266 260.852 8.72643C260.852 8.19699 260.696 8.05044 260.176 8.05517C257.548 8.07881 254.925 8.08353 252.296 8.05517C251.743 8.05044 251.611 8.21589 251.616 8.75007C251.634 16.1812 251.625 23.6124 251.625 31.0483L251.62 31.0436ZM327.327 54.0982C328.764 54.0982 330.201 54.0982 331.638 54.0982C331.761 54.0982 331.926 54.1597 332.006 54.0415C332.101 53.8902 331.959 53.7531 331.879 53.6349C330.73 51.8859 329.572 50.1368 328.419 48.3877C326.721 45.8114 325.02 43.2351 323.327 40.654C323.129 40.3515 323.015 40.2333 322.746 40.6115C321.299 42.6395 319.839 44.6627 318.359 46.667C318.094 47.0263 318.071 47.3005 318.316 47.6645C319.683 49.683 321.039 51.7015 322.387 53.7342C322.58 54.0226 322.798 54.1124 323.129 54.1124C324.528 54.0982 325.927 54.1077 327.327 54.1077V54.0982Z" fill="white"/>
<path d="M0 8.03618C0.817808 8.02672 1.64034 8.00781 2.45815 8.00781C13.5529 8.00781 24.6477 8.00781 35.7424 8.00781C36.253 8.00781 36.5098 8.25835 36.513 8.75944C36.513 10.986 36.4988 13.2125 36.5224 15.439C36.5272 15.9164 36.3806 16.0393 35.9126 16.0346C31.8472 16.0157 27.7866 16.0346 23.7211 16.011C23.1822 16.011 23.0735 16.1764 23.0735 16.6775C23.0877 28.921 23.0782 41.1692 23.0972 53.4127C23.0972 53.9705 22.9837 54.1312 22.3975 54.1218C19.599 54.0839 16.8052 54.0934 14.0067 54.1218C13.5246 54.1218 13.4253 53.9894 13.4253 53.5261C13.4395 41.2638 13.43 28.9966 13.4489 16.7342C13.4489 16.1859 13.3496 16.0063 12.7493 16.011C8.75952 16.0441 4.77448 16.0252 0.784717 16.0346C0.52472 16.0346 0.250542 15.907 0 16.0724V8.03618H0Z" fill="white"/>
<path d="M129.091 48.2931C128.632 49.1534 128.193 49.9334 127.625 50.6472C125.999 52.6846 123.919 53.9373 121.371 54.4952C119.608 54.8828 117.845 54.9111 116.086 54.6275C112.394 54.0319 109.525 52.1316 107.506 48.9832C106.05 46.7094 105.261 44.1993 104.859 41.5379C104.448 38.7961 104.429 36.0543 104.727 33.3125C105.11 29.8002 106.126 26.5006 108.414 23.7115C110.158 21.5796 112.352 20.1472 115.065 19.5516C118.072 18.8945 121.026 18.9654 123.839 20.3127C126.07 21.381 127.748 23.0592 128.84 25.2952C128.902 25.4275 128.897 25.7064 129.1 25.6639C129.351 25.6119 129.223 25.3472 129.223 25.1817C129.228 19.6887 129.237 14.2004 129.218 8.70738C129.218 8.1732 129.346 7.9983 129.904 8.00302C132.589 8.03139 135.274 8.03139 137.954 8.00302C138.498 7.9983 138.607 8.1732 138.607 8.67901C138.592 23.6406 138.592 38.607 138.607 53.5686C138.607 54.0083 138.503 54.1359 138.054 54.1312C135.293 54.1075 132.532 54.1075 129.776 54.1312C129.322 54.1312 129.214 54.0035 129.218 53.5639C129.247 52.037 129.233 50.5054 129.223 48.9785C129.223 48.78 129.285 48.5672 129.095 48.2931H129.091ZM129.223 36.9761C129.204 35.1798 128.949 33.4402 128.297 31.7431C127.039 28.4671 124.245 26.6235 120.766 26.9686C118.587 27.1861 116.928 28.2875 115.765 30.1547C114.739 31.8045 114.29 33.6103 114.157 35.5249C113.987 37.9499 114.134 40.3324 115.117 42.5873C116.048 44.724 117.552 46.2462 119.906 46.8418C122.889 47.5934 126.013 46.2982 127.592 43.6557C128.826 41.5899 129.195 39.335 129.223 36.9808V36.9761Z" fill="white"/>
<path d="M175.011 43.5895C174.666 45.4378 173.961 47.0829 172.921 48.5719C170.993 51.3326 168.327 53.1053 165.136 54.0508C162.564 54.8119 159.907 54.949 157.237 54.7031C154.972 54.4904 152.807 53.9515 150.779 52.8926C148.283 51.5879 146.34 49.7207 144.932 47.2956C142.838 43.6887 142.322 39.751 142.488 35.6667C142.587 33.2605 143.012 30.9205 143.944 28.7035C145.272 25.5551 147.338 23.0166 150.33 21.277C153.37 19.5138 156.679 19.041 160.12 19.1876C162.512 19.2916 164.8 19.8069 166.951 20.8941C169.816 22.3406 171.924 24.5246 173.371 27.3657C174.76 30.098 175.271 33.0336 175.318 36.0685C175.332 36.9572 175.299 37.8412 175.332 38.7299C175.347 39.1412 175.2 39.2641 174.817 39.2215C174.614 39.1979 174.401 39.2215 174.193 39.2215C166.937 39.2215 159.676 39.2262 152.42 39.2121C151.933 39.2121 151.748 39.3113 151.781 39.8266C151.956 42.5589 152.779 44.9698 155.161 46.5865C156.906 47.7636 158.872 47.9763 160.905 47.7021C162.942 47.428 164.62 46.5062 165.831 44.8091C165.972 44.6153 166.138 44.4073 166.185 44.1804C166.303 43.5989 166.667 43.5706 167.164 43.5753C169.584 43.5989 172.004 43.5847 174.42 43.5847H175.011V43.5895ZM159.075 33.2794C161.269 33.2794 163.458 33.2794 165.651 33.2794C166.299 33.2794 166.355 33.2416 166.209 32.6081C166.067 32.0078 165.925 31.4074 165.727 30.8165C164.228 26.4108 159.6 25.177 155.998 26.8315C153.545 27.9566 152.42 30.1027 151.952 32.6696C151.852 33.199 152.004 33.2936 152.5 33.2889C154.693 33.2652 156.882 33.2794 159.075 33.2794V33.2794Z" fill="white"/>
<path d="M51.3236 39.2219C47.5843 39.2219 43.8404 39.2314 40.1012 39.2124C39.6521 39.2124 39.5197 39.3117 39.5528 39.7797C39.6993 41.907 40.2335 43.8829 41.6848 45.5091C42.8855 46.8563 44.4407 47.5512 46.2087 47.7356C48.6196 47.9862 50.8508 47.5465 52.7086 45.8636C53.3137 45.3153 53.8101 44.6818 54.0795 43.9066C54.1646 43.6608 54.2639 43.5851 54.505 43.5851C57.1522 43.5851 59.7947 43.5946 62.442 43.5851C62.9667 43.5851 62.735 43.9444 62.6925 44.124C62.3994 45.4051 61.9172 46.6153 61.2365 47.7451C59.4307 50.7468 56.8213 52.7275 53.517 53.8526C50.7705 54.7886 47.9483 54.9493 45.0931 54.7177C42.5451 54.5144 40.1201 53.8526 37.903 52.5337C35.2132 50.9312 33.2656 48.6811 31.9703 45.84C30.486 42.5924 30.1126 39.1652 30.2733 35.6529C30.4198 32.3533 31.1762 29.2097 32.9394 26.3686C34.939 23.1494 37.7517 20.9749 41.4106 19.8829C44.3131 19.0178 47.2676 18.9233 50.1985 19.4243C55.4362 20.3178 59.27 23.1777 61.4918 28.061C62.5696 30.434 63.0565 32.9442 63.0801 35.5441C63.0896 36.5983 63.0565 37.6572 63.0943 38.7114C63.1085 39.151 62.9714 39.2361 62.5554 39.2314C58.8162 39.2172 55.0722 39.2219 51.333 39.2219H51.3236ZM46.828 33.2798C49.0781 33.2798 51.3283 33.2703 53.5737 33.2892C54.0133 33.2892 54.1173 33.1805 54.0228 32.7362C53.8148 31.7435 53.5501 30.7791 53.0963 29.862C51.4228 26.4679 47.7545 25.5272 44.6298 26.5057C41.6139 27.4511 40.2855 29.8289 39.7088 32.7456C39.6284 33.1569 39.7419 33.2987 40.1957 33.294C42.408 33.2703 44.6204 33.2845 46.828 33.2845V33.2798Z" fill="white"/>
<path d="M77.3466 25.3333C77.8193 24.9788 78.0084 24.4493 78.3062 23.9955C79.8047 21.6981 81.8563 20.1854 84.5319 19.5567C87.1177 18.9469 89.713 18.9752 92.2468 19.7458C95.5511 20.7479 97.7209 22.9981 98.8932 26.2126C99.5503 28.0137 99.8056 29.8904 99.8056 31.8096C99.7961 39.0564 99.7961 46.2985 99.815 53.5453C99.815 53.9991 99.7299 54.141 99.243 54.1362C96.5012 54.1079 93.7642 54.1126 91.0224 54.1362C90.5922 54.1362 90.4646 54.0464 90.4646 53.5926C90.4835 47.1021 90.4835 40.6117 90.4646 34.1212C90.4646 32.7834 90.2944 31.4503 89.7461 30.2118C88.933 28.3729 87.5006 27.3093 85.5105 27.0304C83.0901 26.69 80.9014 27.1486 79.1996 29.0347C77.9091 30.4671 77.3608 32.2067 77.356 34.0976C77.3324 40.5502 77.3419 47.0029 77.356 53.4555C77.356 53.9755 77.2709 54.1504 76.699 54.1457C73.9572 54.1126 71.2201 54.1173 68.4783 54.1457C68.0387 54.1457 67.9536 54.0181 67.9536 53.6068C67.9631 42.5498 67.9631 31.4929 67.9536 20.4359C67.9536 20.0247 68.0434 19.8923 68.4831 19.8923C71.2627 19.9112 74.0375 19.9112 76.8171 19.8923C77.2331 19.8923 77.3608 19.9869 77.356 20.4218C77.3277 22.0621 77.3466 23.7024 77.3466 25.3428V25.3333Z" fill="white"/>
<path d="M189.06 25.697C189.42 25.0257 189.604 24.3166 189.925 23.6548C191.235 20.9367 193.324 19.3531 196.387 19.1829C197.352 19.1309 198.311 19.1971 199.262 19.3625C199.578 19.4193 199.673 19.5753 199.673 19.8542C199.673 22.3454 199.663 24.8366 199.678 27.3232C199.678 27.8148 199.37 27.673 199.158 27.6021C197.929 27.1955 196.662 27.205 195.399 27.2853C192.166 27.4839 189.854 29.4504 189.221 32.7074C189.056 33.5489 189.032 34.3903 189.027 35.2365C189.027 41.3299 189.018 47.4233 189.041 53.5166C189.041 54.0272 188.909 54.1312 188.422 54.1264C185.68 54.1028 182.943 54.1075 180.202 54.1264C179.786 54.1264 179.663 54.0366 179.663 53.6065C179.677 42.5542 179.677 31.4973 179.663 20.4451C179.663 20.0007 179.781 19.8778 180.23 19.8825C182.991 19.9062 185.747 19.9014 188.507 19.8825C188.928 19.8825 189.046 19.9912 189.041 20.4167C189.013 21.9814 189.027 23.5461 189.032 25.1155C189.032 25.3094 189.051 25.5032 189.06 25.697V25.697Z" fill="white"/>
<path d="M282.536 33.36C280.324 33.36 278.116 33.3458 275.904 33.3694C275.412 33.3741 275.275 33.2229 275.336 32.7549C275.729 29.6916 277.799 26.6851 281.359 26.1746C283.713 25.839 285.821 26.34 287.537 28.0135C288.842 29.2851 289.461 30.9349 289.745 32.7171C289.821 33.1898 289.707 33.3789 289.168 33.3694C286.956 33.3363 284.748 33.3552 282.536 33.3552V33.36Z" fill="white"/>
</g>
<defs>
<clipPath id="clip0_402_2">
<rect width="340" height="65.8075" fill="white"/>
</clipPath>
</defs>
</svg>
